<svg width="925" height="925" viewBox="0 0 925 925" fill="none" xmlns="http://www.w3.org/2000/svg">
<g clip-path="url(#clip0_475_142)">
<rect width="925" height="925" rx="462.5" fill="#F0F0F0"/>
<path d="M171.368 179.359C62.5333 204.223 25.709 358.053 161.945 360.639C185.056 366.801 304.38 325.729 301.938 410.449C298.885 516.349 204.944 465.982 23.026 499.121C-158.892 532.259 -145.55 705.316 44.3893 684.05C234.328 662.784 55.6708 802.965 5.37488 966.365C-44.921 1129.76 233.555 911.095 363.508 789.755C524.578 639.36 722.383 917.584 817.605 817.998C912.828 718.413 513.597 533.67 597.942 455.07C682.286 376.47 759.976 637.669 965.23 547.054C1170.49 456.439 1190.98 700.252 1382.99 629.556C1575 558.859 984.833 -39.3043 746.61 -188.174C488.384 -349.544 917.02 -66.2123 748.094 70.6781C579.168 207.568 656.813 78.0498 570.962 -59.7242C485.112 -197.498 450.147 58.2769 441.157 186.824C432.168 315.37 307.411 148.28 171.368 179.359Z" fill="#151515"/>
</g>
<defs>
<clipPath id="clip0_475_142">
<rect width="925" height="925" rx="462.5" fill="white"/>
</clipPath>
</defs>
</svg>
