<svg width="925" height="925" viewBox="0 0 925 925" fill="none" xmlns="http://www.w3.org/2000/svg">
<g clip-path="url(#clip0_475_142)">
<rect width="925" height="925" rx="462.5" fill="#C1C1C1"/>
<path d="M242.64 253.499C159.63 272.462 131.543 389.792 235.454 391.764C253.08 396.464 344.091 365.137 342.228 429.755C339.9 510.527 268.249 472.111 129.497 497.387C-9.25534 522.662 0.921098 654.656 145.791 638.436C290.661 622.216 154.396 729.135 116.034 853.763C77.6726 978.392 290.072 811.607 389.189 719.059C512.041 604.35 662.91 816.557 735.538 740.601C808.166 664.645 503.665 523.739 567.996 463.789C632.328 403.839 691.583 603.06 848.135 533.947C1004.69 464.833 1020.32 650.794 1166.77 596.872C1313.22 542.95 863.086 86.7197 681.389 -26.826C484.435 -149.906 811.363 66.1965 682.521 170.605C553.678 275.014 612.899 176.228 547.419 71.145C481.939 -33.9379 455.27 161.147 448.414 259.192C441.558 357.237 346.403 229.794 242.64 253.499Z" fill="#F0F0F0"/>
</g>
<defs>
<clipPath id="clip0_475_142">
<rect width="925" height="925" rx="462.5" fill="white"/>
</clipPath>
</defs>
</svg>
